<svg width="218" height="271" viewBox="0 0 218 271" fill="none" xmlns="http://www.w3.org/2000/svg">
<path d="M215.09 138.122C215.09 210.91 172.936 266.754 117.034 266.754C61.1328 266.754 2.10889 217.236 2.10889 144.448C2.10889 71.6593 61.1328 2.10889 117.034 2.10889C172.936 2.10889 215.09 65.3331 215.09 138.122Z" fill="white"/>
<g style="mix-blend-mode:darken" opacity="0.42">
<path d="M213.803 135.516L213.318 130.286L213.086 128.072L212.791 123.159V119.321C212.791 116.306 212.433 113.67 211.631 111.35L210.936 109.515L210.092 107.407L209.523 105.53L208.321 100.764L207.878 98.9297L206.866 95.7033L206.36 93.6157L205.896 91.1907L205.01 87.7534L203.998 83.9155C203.239 81.2585 202.142 79.2342 201.362 77.7581L200.54 76.0922L199.464 73.4563L199 72.1278L197.44 67.9314L195.394 62.7018C194.614 60.7407 193.855 59.0115 192.99 57.4089L191.957 55.6586L190.671 52.9384L189.722 50.7242L187.676 46.5911L185.736 43.3858L184.555 41.5091L183.628 40.0752L182.658 38.6834L181.962 37.7977L181.224 36.8277L180.57 35.9632L179.958 35.1197L178.693 33.5381L176.922 31.4083L175.952 30.1431L174.708 28.7513C174.37 28.4139 174.834 28.8357 174.391 28.435L173.379 27.5704L172.388 26.8113L171.545 26.2419L170.933 25.6726L169.963 24.6393L167.981 22.9734L167.327 22.5306L165.83 21.5817L165.008 21.0756L163.131 19.8314L161.76 18.8192L160.6 18.1233L159.314 17.4275L157.564 16.584L155.982 15.9514C155.328 15.6983 155.814 15.9303 155.539 15.8037L154.991 15.5085L154.738 15.3398L153.642 14.6861L153.494 14.2855L152.503 12.5352C152.376 12.3243 151.659 11.1435 150.457 10.0891C148.749 8.57082 146.767 7.68515 144.743 7.1158L140.293 6.04035C138.67 5.61861 136.856 4.85947 134.41 4.41664L132.175 4.16358H129.412C129.412 4.16358 129.033 4.05815 127.978 4.1425L127.451 3.76293L127.177 3.57314L126.334 3.06705L125.827 2.77182L124.963 2.28682C124.963 2.28682 124.815 2.20247 124.752 2.18138C124.14 1.35898 123.571 0.220273 119.839 0.00940066C118.152 -0.0960356 115.558 0.684191 114.019 2.41335C110.961 5.82948 111.994 9.56192 113.766 11.7972C114.525 12.7461 115.579 13.442 116.718 13.9059L117.92 14.665C118.384 14.897 117.878 14.6229 118.215 14.7916L118.531 14.9813L119.185 15.382C119.459 15.5507 119.185 15.382 119.333 15.4663H119.375L119.818 15.8248L120.724 16.5207L122.264 17.5751L123.149 18.1233L124.119 18.7138L125.342 19.3886L125.49 19.4729L126.249 19.8314L126.861 20.1477L128.168 20.7803L128.927 21.1388L129.813 21.6027L130.509 21.9823C130.804 22.151 131.099 22.2986 131.416 22.4673L131.922 22.7836L132.723 23.2897L133.672 23.838L135.021 24.576C135.696 24.9345 135.169 24.6393 135.338 24.7236L135.675 24.9345L136.455 25.4195L137.425 25.9678L138.248 26.4739L138.965 26.8746L139.155 26.98L139.408 27.1487L139.555 27.2541L140.293 28.1398L141.411 29.4472C141.601 29.6581 142.381 30.5016 143.562 31.2396L144.785 31.8722L145.291 32.1042L145.987 33.0531L146.324 33.5381L147.526 34.8033L148.791 35.9421L149.93 36.7855C150.162 36.9542 149.846 36.7223 150.12 36.9332L150.415 37.144L151.301 38.0086L151.617 38.3671L151.68 38.4304C151.68 38.4304 151.512 38.2617 151.786 38.7256L152.144 39.3582L152.714 40.3071L153.03 40.8343L154.127 42.3315L155.244 43.66C155.982 44.4191 155.35 43.7233 155.75 44.1239L157.669 46.1905L158.892 47.3713L160.221 48.489L160.769 48.9529L161.17 49.3325C161.528 49.6698 161.254 49.3325 161.465 49.5855L161.908 50.0916C162.351 50.6188 161.781 49.944 162.034 50.3236L162.583 51.0405C163.025 51.6099 162.456 50.8718 162.646 51.2092L162.857 51.6099L164.86 55.0049C165.303 55.7852 165.978 57.3878 166.568 59.0748C167.032 60.4243 167.559 61.8583 168.276 63.3344L169.562 65.6751L170.532 67.2988L171.249 68.2688L172.325 70.2088L173.927 74.8691L175.235 78.3907L176.627 81.8068L177.386 83.7679L178.377 87.2262V87.3106L178.756 88.5547L179.326 90.7267L180.064 94.3748C180.696 97.8753 181.413 100.891 181.814 103.822L181.962 105.446L182.341 109.79L182.531 112.194L182.721 115.567L182.826 117.739L183.269 122.906L183.438 125.584L183.543 127.65L183.585 129.759L183.881 135.179L184.028 138.468L184.07 139.881L184.113 141.336L184.155 146.798V158.29L184.07 160.357L183.67 166.135L183.164 170.964L182.51 174.97C182.173 176.931 181.835 178.618 181.666 180.474L181.245 185.472L181.076 186.99L180.654 189.499L179.916 192.578L178.735 195.868L177.913 197.808C176.795 200.465 176.142 202.805 175.446 204.513L174.729 206.158L173.168 209.701L171.987 212.295C171.376 213.476 170.427 214.614 169.12 216.428C167.686 218.41 166.631 220.076 165.661 221.215L163.574 223.471L161.191 226.001L158.449 228.764L156.53 230.683L154.169 232.749L151.238 235.153L149.951 236.208C148.032 237.747 146.156 238.97 144.237 240.046L140.209 242.239L135.317 245.149L133.545 246.287H133.524C129.707 246.287 126.882 247.489 123.93 249.092L120.64 251.053L120.113 251.264L118.679 251.875L117.92 252.255L116.359 253.035L113.829 254.343L112.943 254.828L111.952 255.27L110.37 256.114C110.37 256.114 110.476 256.03 110.434 256.051L109.168 256.472C108.831 256.536 108.452 256.62 107.988 256.725C104.171 257.632 101.809 261.449 102.716 265.266C103.391 268.092 105.668 270.116 108.346 270.601C108.22 270.58 108.072 270.538 108.051 270.538L108.452 270.622L109.084 270.685C109.126 270.685 109.147 270.685 109.126 270.685L110.265 270.791C112.374 270.791 114.778 270.517 117.435 270.137C121.251 269.61 124.541 269.23 127.873 268.028L132.048 266.489L133.862 265.962C135.991 265.266 137.446 264.422 138.564 263.916L143.604 261.976C145.101 261.323 146.451 260.458 147.695 259.509L150.246 257.358L151.343 256.43C152.334 255.629 153.578 254.849 154.97 253.794C155.961 254.364 157.079 254.722 158.302 254.743C159.989 254.785 160.495 254.596 160.769 254.448C161.064 254.364 161.317 254.258 161.549 254.153C163.595 253.457 164.206 252.677 164.67 252.318L166.083 251.243L168.255 249.535L169.647 248.438L170.638 247.574L171.966 246.498L175.298 244.411C177.808 242.85 180.169 240.657 182.067 237.937L183.543 235.575C184.872 234.9 185.947 233.888 186.432 233.234L187.17 232.075L188.646 229.481L190.629 225.643L192.4 222.353C193.286 220.645 194.15 219.043 194.825 217.356C195.099 216.681 195.458 215.88 195.584 214.382C195.647 213.686 195.542 212.653 195.204 211.557L195.584 210.608L197.144 207.044L198.621 204.324C199.211 203.227 199.802 202.004 200.287 200.633L201.72 196.289L202.332 194.455L203.724 190.638L205.474 185.999L206.064 183.953L206.275 183.764C209.544 180.917 209.164 179.378 209.776 177.627L211.21 172.545L211.906 169.235L212.138 168.033L212.749 163.33L213.065 159.745L213.318 155.338L213.466 151.816L213.571 148.379L213.614 145.933L213.719 143.023V135.411L213.803 135.516ZM108.557 270.706C108.747 270.727 108.958 270.727 109.147 270.749C109.105 270.749 109.084 270.749 109.084 270.749C108.958 270.749 108.705 270.706 108.557 270.685V270.706Z" fill="#F8BA00" fill-opacity="0.5"/>
</g>
<g style="mix-blend-mode:darken" opacity="0.42">
<path d="M107.921 270.579H108.022C108.022 270.579 107.841 270.559 107.861 270.579H107.941H107.921Z" fill="#F8BA00" fill-opacity="0.5"/>
</g>
<g style="mix-blend-mode:darken" opacity="0.42">
<path d="M91.0549 224.167C94.9771 224.167 98.1614 227.351 98.1614 231.273C98.1614 235.196 94.9771 238.38 91.0549 238.38H89.9373C89.9373 238.38 90.8862 238.295 90.5067 238.338C88.2082 238.591 88.7142 238.317 88.2292 238.211C87.8918 238.148 91.1603 238.211 90.1903 238.295C89.157 238.401 94.6187 236.229 93.5854 236.988C92.8262 237.557 95.9893 233.53 95.5676 234.479C95.3567 234.943 96.0104 232.939 95.9472 233.277C95.8839 233.572 96.0315 232.623 96.0315 232.707C96.0104 233.003 96.0315 232.707 96.0315 232.834C96.0315 233.003 95.905 231.611 95.9683 231.99C96.137 232.939 95.9471 231.885 96.0104 232.328C96.0948 232.855 94.6609 229.249 95.188 230.093C95.3989 230.43 94.703 229.418 94.7663 229.481L94.8717 229.586C94.8717 229.586 94.1126 228.912 94.3656 229.122C94.6397 229.333 92.8684 228.321 93.2901 228.49C93.4799 228.574 92.1936 228.3 92.5732 228.321C92.8684 228.342 92.046 228.3 92.763 228.3H93.3112C93.3112 228.3 92.4678 228.363 92.8052 228.342C93.1215 228.321 91.0549 228.785 91.5821 228.616C92.3834 228.342 88.3346 231.084 89.0727 230.282C89.7897 229.502 87.6177 233.087 87.7864 232.496C87.7653 232.623 87.8075 232.391 87.7864 232.496C87.8286 232.349 87.6177 233.635 87.6599 233.277C87.7021 232.855 87.6388 234.057 87.6388 233.994V232.96C87.6388 232.665 87.6388 233.108 87.6388 232.855C87.6388 232.707 87.7864 233.909 87.7231 233.593C87.6599 233.234 88.3136 235.343 88.1027 234.858C87.8075 234.162 89.4523 236.883 89.1149 236.482C88.6088 235.892 91.1393 238.021 90.6332 237.726C90.1482 237.452 92.6575 238.401 92.1304 238.295C91.3923 238.148 94.471 238.274 93.9649 238.359C93.4589 238.443 96.1791 237.494 95.5676 237.832C94.4921 238.401 98.2667 235.259 97.845 235.849C97.4654 236.398 98.4144 234.858 98.3933 234.9C97.9926 235.765 98.7307 231.822 98.7939 232.707C98.7939 232.96 98.562 231.463 98.6674 231.822C98.7939 232.391 96.9805 228.743 97.6342 229.607C97.9716 230.071 95.6941 227.794 96.2634 228.237C96.8539 228.68 93.501 226.993 94.2391 227.204C97.9926 228.342 100.101 232.307 98.9626 236.06C97.8239 239.814 93.8595 241.922 90.106 240.784C85.6144 239.413 84.7498 235.47 84.6233 233.635C84.5179 231.927 84.7498 230.578 85.4668 228.996C85.6777 228.511 86.4579 226.55 88.9462 225.242C90.8651 224.23 92.6998 223.893 95.0615 224.399C97.4655 224.905 99.7639 226.023 101.135 229.249C102.189 231.674 101.809 233.003 101.809 233.298V234.647C101.662 235.765 101.43 236.398 101.367 236.651C100.523 239.371 96.6641 242.239 94.1969 242.492L92.763 242.534H91.4556C89.9794 242.386 88.7986 242.049 87.7442 241.585C86.1205 240.889 84.9185 239.814 84.1383 238.907C84.075 238.844 83.6533 238.464 83.0629 237.494C82.4092 236.419 82.1139 235.322 82.0085 234.605L81.9241 233.951C81.9241 233.951 82.0717 234.921 81.9874 234.458C81.6922 232.771 81.903 231.463 81.903 231.421C81.9874 230.451 82.9574 227.182 85.1926 225.538C87.4068 223.914 90.0638 224.104 90.9284 224.272C91.2658 224.336 90.8862 224.272 91.1182 224.315C91.2658 224.336 90.0849 224.167 90.4223 224.209C90.7808 224.251 88.419 224.272 89.0094 224.209L90.5067 224.167H91.0549Z" fill="#F8BA00"/>
</g>
<g style="mix-blend-mode:darken" opacity="0.42">
<path d="M105.162 229.523C103.686 226.36 101.472 225.664 100.165 225.411C99.5742 225.073 99.0048 224.799 98.4355 224.609C96.8961 224.061 95.7574 224.061 95.0826 224.061C95.0404 224.061 94.9561 224.061 94.914 224.061C94.2181 223.829 93.5011 223.682 92.7209 223.682H90.6543L88.4613 224.082C84.3703 225.305 83.9907 227.583 83.5479 228.679C83.1472 229.692 82.9786 230.535 82.8731 231.357C82.831 231.674 82.4935 233.213 83.0207 235.343C83.9907 239.349 86.3525 240.994 88.2925 242.238C88.3347 242.26 88.3769 242.281 88.398 242.302C89.0728 242.808 89.7897 243.187 90.4856 243.44C91.3924 243.757 92.1726 243.904 92.8685 243.968C93.5644 244.094 94.3024 244.178 95.167 244.136C97.7818 244.031 100.734 242.745 102.59 240.256C102.864 239.961 103.138 239.666 103.391 239.307C103.813 238.759 104.319 238.042 104.72 237.135C105.078 236.482 105.415 235.617 105.647 234.394C105.732 234.014 105.605 234.668 105.732 233.972C105.879 233.129 106.048 231.4 105.141 229.481L105.162 229.523Z" fill="#F8BA00"/>
</g>
<g style="mix-blend-mode:darken" opacity="0.42">
<path d="M76.6734 207.74C76.4414 206.58 75.9774 205.631 75.7033 205.125C74.5224 202.974 73.0041 202.089 71.4226 201.519C70.0098 200.992 69.1873 200.971 68.5758 200.929H67.0997C67.0997 200.929 67.0997 200.929 67.1419 200.929C63.7679 200.781 59.5716 202.257 58.3485 207.339C58.2642 207.719 58.222 208.077 58.2009 208.457C58.2009 208.52 58.1587 208.562 58.1377 208.626C57.8214 209.996 57.8846 210.755 57.8635 211.135C57.8635 211.768 57.737 213.307 58.6859 215.205C59.5294 217.778 61.1953 218.22 61.8912 218.642L62.1231 218.748C62.1231 218.748 62.2708 218.853 62.3551 218.874L62.7768 219.064L63.7258 219.528C64.5271 219.844 65.2651 220.013 65.961 220.097C66.2773 220.16 66.4038 220.16 66.4671 220.139C67.1419 220.181 67.7956 220.16 68.4282 220.097C69.2085 219.992 69.9043 219.823 70.5159 219.591H70.5791C70.5791 219.591 70.7478 219.507 70.8322 219.465C71.6124 219.148 72.1606 218.79 72.6667 218.41C74.185 217.314 74.881 216.28 75.4925 215.289C75.9142 214.614 76.3781 213.792 76.7366 212.337C77.0951 210.924 77.074 209.554 76.7366 208.267C76.7155 208.098 76.6944 207.951 76.6523 207.761L76.6734 207.74Z" fill="#F8BA00"/>
</g>
<g style="mix-blend-mode:darken" opacity="0.42">
<path d="M64.5058 29.6159L64.9908 30.0166L66.2139 31.071C67.3104 31.9355 68.4491 32.5471 68.8498 32.7579L69.0185 32.8423L69.3137 33.0321L69.7776 33.3695L70.3048 33.8123L71.3592 34.6347L72.5612 35.4993L73.6999 36.2584L74.944 36.9543L76.4833 37.6713L78.1704 38.2617L79.2669 38.5991L80.0893 38.9365L81.3546 39.4637L81.8606 39.6535C82.3246 39.8433 81.9661 39.6956 82.1137 39.7378L82.8517 40.033C85.1292 41.0031 87.7018 41.7411 90.3799 42.3105C93.5219 42.9642 96.685 43.0907 99.7426 43.3226L106.216 43.9342L109.358 44.2505L114.293 44.5668H116.971C119.29 44.5246 121.02 44.3137 122.264 44.2294L127.978 44.145C130.825 44.0185 133.335 43.4703 135.549 42.8798L138.311 42.0996L139.007 41.9309L140.673 41.5302L141.179 41.3826C141.58 41.2772 141.179 41.3826 141.474 41.3194L142.212 41.1718C144.49 40.6867 143.161 40.8765 143.351 40.8343L145.354 40.2439L147.358 39.4848L148.623 38.9365L149.698 38.4515L150.268 38.1984L151.638 37.608L152.461 37.2073L153.136 36.8489L154.021 36.3849L157.374 34.4449L158.492 33.7701L158.892 33.5593L160.158 32.9688L161.381 32.3151L162.583 31.5138L163.278 31.0077L164.354 30.0377C164.649 29.7636 164.248 30.1431 164.523 29.8901C164.649 29.7846 164.417 29.9744 164.607 29.8268L166.083 28.6038C166.357 28.3296 166.969 27.8235 167.622 26.5372C168.339 25.1033 168.656 22.5939 168.002 20.7593C166.99 17.8703 164.649 16.5418 164.333 16.3521L164.396 16.3942L163.468 15.7194L162.372 15.0236C162.372 15.0236 162.351 15.0025 162.287 14.9603L161.634 14.4331L159.293 12.9781L157.922 12.3455C157.922 12.3455 158.028 12.3877 157.901 12.3455L156.72 11.8605L155.329 11.2911C154.865 11.0802 155.687 11.4387 155.054 11.1224C153.768 10.4476 153.136 10.3211 152.714 10.1735L150.436 9.54088L149.319 9.30892L148.539 9.16131L147.695 9.0137L147.463 8.97153C147.231 8.90826 147.653 9.03478 147.4 8.95043L146.367 8.61304L145.776 8.40217H145.734L145.418 8.21238L144.827 7.93825L143.583 7.34781C142.866 7.07367 142.592 6.98932 142.444 6.96824C141.137 6.50432 139.619 6.06148 137.889 5.78735L135.57 5.38669L133.946 5.07038L133.166 4.92277L132.322 4.69081C130.91 4.41668 130.382 4.50103 130.129 4.47994H129.919L129.644 4.41668L129.117 4.35341L127.515 4.2058L126.84 4.12146L126.334 4.07929L125.743 3.91058L125.427 3.80515L124.731 3.61536C124.162 3.44667 122.939 3.04601 121.336 2.81405L119.101 2.66644H116.191C114.145 2.75078 112.901 3.17253 111.931 3.40449L110.75 3.63645L110.307 3.7208C110.202 3.65754 110.075 3.57319 109.991 3.53101C109.232 3.06709 108.768 2.91948 108.431 2.81405L107.207 2.53992L106.048 2.45557H104.424C103.306 2.53992 102.02 2.70861 100.67 3.10927L97.9291 3.93168L97.7182 3.99493L94.5551 4.90169L91.7927 5.74517C90.169 6.3567 88.4398 7.24237 86.7739 8.42325L86.2679 8.82392C84.4333 9.77284 82.915 10.6374 81.46 12.0292C80.8274 12.6407 80.2791 13.3366 79.8363 14.0114L78.7187 14.9181C78.3391 15.2134 78.318 15.2766 78.2969 15.3188C77.9384 15.4031 77.4745 15.5718 76.5256 16.1834C76.0827 16.4786 75.2603 16.7527 74.4801 18.0179C73.1305 16.4997 71.1694 15.5929 69.0607 15.6351C69.1239 15.6351 69.145 15.6351 69.1239 15.6351H68.5546C68.1539 15.6351 67.1417 15.361 65.0541 16.4575C62.6712 17.7227 61.174 21.3076 61.2162 23.0367C61.3005 26.1365 63.093 28.0977 63.7045 28.7303L64.5902 29.5949L64.5058 29.6159Z" fill="#F8BA00"/>
</g>
<g style="mix-blend-mode:darken" opacity="0.42">
<path d="M165.535 205.568C163.574 202.616 160.327 201.836 159.546 201.667L156.995 201.33H156.172C155.814 201.309 154.97 201.224 153.768 201.498C152.292 201.604 149.424 202.468 147.948 204.219C147.759 204.429 146.936 205.189 146.156 206.939C145.565 208.309 145.397 209.322 145.333 210.608V212.021C145.481 215.247 147.505 218.073 149.867 219.507C150.858 220.097 151.765 220.435 152.609 220.667H152.63C152.735 220.709 152.862 220.73 152.967 220.772C153.326 220.856 153.073 220.772 152.841 220.73L153.705 220.92L155.118 221.046C156.51 221.13 158.387 220.856 159.968 220.034C160.453 219.781 161.423 219.296 162.541 218.347L163.152 217.799C163.658 217.335 164.291 216.702 164.945 215.753C165.514 214.91 166.104 213.855 166.442 212.59C166.589 212.042 166.758 211.135 166.716 210.018C166.758 209.132 166.674 207.403 165.472 205.61L165.535 205.568Z" fill="#F8BA00"/>
</g>
<g style="mix-blend-mode:darken" opacity="0.42">
<path d="M29.9017 64.3253C30.0915 66.2653 30.7663 67.2142 31.2302 67.889C32.1159 69.1332 32.8328 69.7447 34.077 70.3984C34.33 70.5249 33.9083 70.3141 34.2879 70.5249C34.4776 70.6304 34.4777 70.6304 34.4355 70.5882L34.8572 70.8834L35.7007 71.4106L36.0803 71.6847L36.5864 72.0432L37.957 72.8867C38.674 73.3295 39.6651 73.9622 40.9936 74.5526L42.4486 75.1852L43.018 75.4383L43.6295 75.7124L43.7349 75.7757L45.7171 76.8089L47.1721 77.4205L47.8258 77.6946L49.0278 78.2429L50.6094 78.9598L51.6005 79.2972L52.2964 79.5714L52.9079 79.8033L53.6248 80.0986L54.3418 80.4149L54.9112 80.7312L55.354 80.9631L56.2819 81.5536L57.0832 81.9964C61.4904 84.3582 65.75 84.4636 70.0097 84.8643L73.6577 85.1806L77.4113 85.7499L79.6255 86.2349C81.1016 86.6567 82.9783 87.1417 85.0659 87.458L89.3045 88.1328L92.1934 88.7654L95.6518 89.2504L97.3809 89.6722L99.4475 90.2837C100.902 90.6844 102.358 90.8952 103.813 91.0428L107.102 91.4435L110.118 91.6965L114.694 92.1605L120.598 92.5611L123.824 92.7087L129.518 92.7931C130.277 92.7931 131.142 92.7931 132.048 92.7931L136.35 92.9829H140.167L141.348 93.025C143.203 93.1305 145.586 93.5733 148.56 93.6366C149.93 93.6787 151.596 93.742 153.578 93.6366C155.772 93.4889 157.585 93.1516 158.914 93.0039L163.785 92.3924L165.893 91.9496L167.18 91.57L167.77 91.4224L168.361 91.2748L169.225 91.0217L172.915 90.2626L175.973 89.4191L177.07 89.145L178.061 88.8708C178.799 88.66 178.124 88.8287 178.546 88.7021L179.347 88.4913L179.853 88.3858L181.624 87.943L181.772 87.9008L182.341 87.7532C183.733 87.3736 183.185 87.458 183.269 87.4369C183.522 87.3526 183.079 87.5002 183.438 87.3947C184.935 86.9941 184.471 87.0152 184.788 86.9097L185.715 86.6356L186.411 86.3615L187.402 86.0662L188.225 85.8132L188.836 85.6234L189.638 85.4336L189.87 85.3704L190.713 85.1595L191.894 84.8221L193.792 84.0629L194.72 83.6623C194.72 83.6623 194.699 83.6623 194.825 83.6623C196.765 83.0929 199.043 81.0686 199.865 79.3183L199.991 79.0442L200.814 77.1674L201.067 76.345L201.489 74.8267L201.763 72.8235V70.4617L201.7 68.7958C201.636 68.0788 201.721 67.3829 201.046 65.6538C200.751 64.9157 199.97 64.0723 199.021 63.3342V62.6805C199.021 62.3009 199.064 63.0179 199.021 62.2166C198.979 61.2465 198.558 59.2222 197.271 57.6828C196.407 56.6495 195.479 56.0169 194.656 55.6163C195.036 53.8871 194.994 51.8416 194.108 50.2812C192.759 47.9405 191.072 47.329 189.954 46.9705C187.93 46.3379 186.39 46.5277 184.619 47.329C183.438 47.8772 183.269 48.1303 183.206 48.1725L181.92 49.1846L181.392 49.6697L181.139 49.8594L178.377 51.5675L172.852 54.2456L172.747 54.2878C172.747 54.2878 172.241 54.3299 170.933 54.9836H170.891L170.026 55.321C169.563 55.4897 169.858 55.2367 168.445 55.8271L167.981 56.038L166.927 56.4176L164.27 57.7672C163.764 58.0202 164.164 57.8937 163.89 57.978L162.857 58.2522L161.718 58.5896L160.158 59.1378L159.462 59.3065L157.965 59.7915L157.037 60.0657L155.308 60.5928C155.055 60.6139 154.823 60.6561 154.548 60.6772L151.132 61.12L145.924 61.584L139.83 62.09L134.389 62.6805L130.551 63.0811L127.683 63.3553L124.9 63.6083H116.275L113.47 62.9124L109.464 62.4907L105.521 62.0479L102.526 61.3309L101.872 61.0989C101.134 60.8248 100.059 60.4452 98.625 60.15L96.7483 59.8126L95.7361 59.6439L95.1879 59.4963L94.26 59.2644L86.6264 57.7039L82.8729 56.9658L81.2914 56.5019L80.4478 56.1856L79.1826 55.7006L78.1915 55.3421L76.9473 54.9415C76.9473 54.9415 76.9474 54.9415 76.8419 54.8782L76.631 54.7517L76.0406 54.3932L75.3658 53.9715L74.1639 53.4021L72.7931 52.8538L72.3503 52.6851L71.2116 52.2212L69.7566 51.6308L68.3438 51.1036L67.3105 50.7451L65.9609 50.3023L65.0963 49.9438L63.1563 49.269L62.102 48.9316C61.9122 48.8683 62.2285 48.9738 61.9122 48.8473L61.385 48.6575L60.6891 48.4044L60.2041 48.2146L60.0565 48.1725C60.0565 48.1725 59.9932 48.1303 59.951 48.1092C59.8456 47.9827 59.5715 47.7718 58.8123 47.2868L57.2097 46.4433L56.6614 46.1903L56.0077 45.9372L54.637 45.4944L53.7303 45.3046H53.6459L52.8236 45.0937L51.98 44.8407L51.5372 44.6931L51.3053 44.5876C49.3653 43.4067 47.5517 43.3435 46.3919 43.4067C45.0845 43.47 43.503 44.1448 42.2588 44.9672C40.9936 44.7563 40.5929 45.0305 40.3188 45.0515C40.2555 45.0515 40.5297 45.0515 40.7617 45.0515C36.9449 45.1781 33.9083 48.299 33.9083 52.1369C33.9083 53.0858 34.0981 53.9715 34.4355 54.7939L33.8872 55.4054L33.0437 56.3543L32.7907 56.6495L32.1369 57.5985C32.2213 57.4719 32.2845 57.3665 32.2845 57.3665L32.0737 57.6406L31.188 59.0957C30.8717 59.7072 30.5132 60.2765 30.1337 61.7737C30.1126 61.9003 29.8806 61.8581 29.9228 63.3764C29.9017 63.6927 29.8806 64.009 29.9228 64.3042L29.9017 64.3253ZM59.3606 47.9827L59.1075 47.8983C59.1075 47.8983 59.2763 47.9405 59.3395 47.9616L59.3606 47.9827ZM184.745 47.6453L184.218 47.9616C184.345 47.8772 184.45 47.7929 184.471 47.7929C184.577 47.7296 184.766 47.6453 184.724 47.6453H184.745Z" fill="#F8BA00"/>
</g>
<g style="mix-blend-mode:darken" opacity="0.42">
<path d="M217.093 123.37C217.03 123.032 217.093 123.37 217.051 123.159L216.861 122.041L216.756 121.535C216.756 121.535 216.798 121.577 216.693 120.734L216.524 119.595V116.896L216.482 115.567C216.439 114.893 217.241 114.302 215.069 111.202C214.289 110.085 212.412 108.356 209.713 108.145C208.932 108.081 207.077 107.28 204.42 109.199L203.829 109.431L202.901 109.916L202.142 110.338C202.142 110.338 202.121 110.338 202.121 110.359L201.721 110.485L200.371 111.034L199.949 111.223L199.886 111.266L199.338 111.455L199.211 111.498L198.452 111.687L197.06 112.109L194.361 113.016L189.574 114.787L188.794 114.935L187.423 115.146L185.125 115.567L183.122 115.968L179.727 116.432L175.657 117.254L173.78 117.76L170.385 118.625L169.056 118.773L167.601 118.984L164.017 119.49L161.233 119.869L156.256 120.396L148.686 120.755L146.43 120.86C143.92 121.05 141.495 121.345 139.914 121.345H135.211L129.201 121.156L127.029 121.071L123.634 120.924H113.07L110.771 120.649L109.148 120.333L105.647 119.469C102.864 118.773 100.291 118.752 97.7604 118.773L94.5974 118.709L94.2388 118.667L93.0158 118.414L91.2234 118.014L89.8738 117.782L87.4487 117.149L83.9482 116.031C82.6198 115.546 80.3845 114.112 76.6732 113.395C74.5012 112.974 73.6366 113.037 73.2148 112.91L72.3714 112.615L71.2749 112.299L70.5157 111.983L69.5667 111.603C69.1872 111.455 69.609 111.645 69.3559 111.519L68.5967 111.139C68.0274 110.907 68.6389 111.181 68.3858 111.055L67.7322 110.738L67.0785 110.443L65.0119 109.6C63.1563 109.009 61.9965 109.03 60.8577 108.904L58.4116 108.524C56.7668 108.208 55.2907 107.702 55.0588 107.575L54.4472 107.259L54.0887 107.027L53.7935 106.837L52.9289 106.268L51.98 105.741L50.8835 105.171L49.3652 104.518C48.9434 104.37 49.3441 104.518 49.091 104.433L48.5427 104.18L46.919 103.421L46.3286 103.21L45.3164 102.831L44.8525 102.641L44.0723 102.304L43.1234 101.882L42.5751 101.65L41.7737 101.27L40.9303 100.848L40.1501 100.469L38.4209 99.6465L37.7461 99.3513L37.4298 99.2248L37.3033 99.1615L36.8815 98.9507L35.5952 98.3602L33.36 97.4113L32.2423 96.863L31.2723 96.3358L30.4499 95.8719L29.7118 95.408L28.6364 94.7965L27.8984 94.3747L26.591 93.7843L26.0638 93.5312L25.5366 93.236L24.6088 92.7721L24.0605 92.4979L23.7442 92.3293L23.1959 92.0551H23.1748C22.8796 91.8442 22.3735 91.5279 21.6354 91.2538L20.6865 90.5158C20.2015 90.1784 20.0328 89.609 17.5234 89.1451C16.469 88.9553 14.4025 88.639 11.9774 90.4314C8.81436 92.751 8.13959 97.2004 10.4803 100.363C10.5857 100.511 10.7122 100.617 10.8177 100.743C10.2061 100.891 9.59464 101.102 9.06746 101.46C6.87439 102.852 6.28394 104.665 6.09415 105.192C6.07306 105.277 6.09415 105.256 6.09415 105.235L5.73564 106.162L5.56697 106.711L5.10305 107.934C4.49152 109.916 4.72347 110.253 4.70238 110.738V112.278C4.70238 113.459 4.76562 114.808 5.27172 116.474C5.37715 116.854 5.27173 116.474 5.35608 116.706C5.50369 117.297 5.71454 118.309 6.64238 119.7L7.23282 120.502C7.90761 121.345 8.54025 121.851 8.77221 122.041L9.06746 122.252C9.23616 122.484 9.4259 122.716 9.67894 122.99L10.5646 123.876L11.6612 124.783L12.4414 125.394L12.8842 125.689L12.9686 125.753L13.074 125.837L13.791 126.385L13.9386 126.469L15.6045 127.566L16.7853 128.241L17.3969 128.641L17.9241 128.958L18.873 129.506C18.873 129.506 18.9574 129.569 19.1893 129.717L20.1383 130.265L20.3913 130.518L20.792 130.877L22.6476 132.437L23.7442 133.154L24.1026 133.386L25.5366 134.23L26.0216 134.504L26.8862 134.989L28.4255 135.853C28.8684 136.085 28.4255 136.043 29.986 136.655C30.0914 136.697 30.1336 136.697 30.1125 136.697H30.1336L30.6819 136.992L32.0526 137.625L32.8328 137.941C33.7184 138.321 34.8571 138.742 36.1856 139.08L37.24 139.312L38.9902 139.67H39.0957C39.3487 139.776 39.7072 139.902 40.1501 140.008L40.6561 140.218L41.12 140.45L42.554 141.188C43.0601 141.42 42.8492 141.294 42.7437 141.252H42.786L43.2288 141.505L44.5573 142.18L46.434 143.065L47.1088 143.381L48.9856 144.077L50.061 144.457L52.212 145.153L56.8933 146.671L57.9055 147.072C58.3483 147.219 57.8001 147.008 58.0953 147.135L58.6225 147.346L59.5925 147.747L60.5836 148.084L61.7434 148.485L65.0752 149.834L70.832 151.88L73.1094 152.618L74.5645 152.871L75.9351 153.082L78.1915 153.314L81.8606 153.967L85.9726 154.811L86.7529 155.148L87.4698 155.401L88.1024 155.633L90.4853 156.371L95.0191 157.257L98.4141 157.826L98.7937 157.932L99.2998 158.079L100.312 158.332L101.915 158.691L104.15 158.965L108.81 159.492L110.012 159.576L112.184 159.808L113.681 159.956L114.651 160.061L116.359 160.23L118.742 160.441L121.568 160.778L122.369 160.884L124.499 161.053L126.186 161.116L129.729 161.2L134.431 161.242L136.076 161.327L139.387 161.538L141.98 161.77H146.409L149.846 161.727L151.87 161.685L156.615 161.643H158.576L162.646 161.601L166.863 161.327L171.861 160.715L179.579 159.471C181.772 159.155 183.438 158.67 185.083 158.29L190.544 157.046C193.686 156.181 196.575 155.085 199.253 153.735L199.907 153.44L201.257 152.765L202.269 152.238L204.799 150.931L205.495 150.509L207.541 149.012L208.553 148.105L208.595 148.063L208.806 147.936L209.312 147.536L209.734 147.219L210.071 146.966H210.113L211.104 146.629C211.674 146.439 212.834 145.996 213.972 144.836C214.141 144.668 214.71 144.541 215.638 142.475C216.545 140.45 216.355 138.974 216.292 138.321C216.292 138.152 216.271 138.152 216.271 138.173V137.73L216.355 137.161C216.355 137.161 216.376 137.119 216.439 136.95L216.503 136.676C216.65 136.402 216.798 135.959 216.946 134.904V134.82L217.072 134.187V133.998C217.304 133.133 216.946 136.655 217.304 132.943V131.088L217.346 130.392V129.886L217.388 128.051V127.06C217.388 126.469 217.536 125.246 217.156 123.433L217.093 123.37ZM202.353 111.181C202.353 111.181 202.416 111.139 202.48 111.055L202.079 111.561C202.079 111.561 202.248 111.329 202.353 111.202V111.181ZM14.6345 126.87L14.761 126.933L14.6977 126.891C14.6977 126.891 14.6977 126.891 14.6556 126.849L14.6345 126.87Z" fill="#F8BA00"/>
</g>
<path d="M83.8174 165.698C89.8232 169.409 95.3408 172.046 100.37 173.608C105.448 175.122 109.989 175.879 113.993 175.879C116.581 175.879 118.656 175.391 120.219 174.414C120.854 173.486 121.317 172.314 121.61 170.898C121.952 169.482 122.147 167.993 122.196 166.431C122.196 164.868 122.123 163.574 121.977 162.549C121.049 161.084 119.267 159.473 116.63 157.715C114.042 155.957 110.893 154.199 107.182 152.441C105.668 153.662 103.959 154.712 102.055 155.591C100.199 156.47 98.3438 157.104 96.4883 157.495C94.877 156.958 93.3389 156.006 91.874 154.639C90.4092 153.223 89.2129 151.514 88.2852 149.512C87.4062 147.51 86.9668 145.459 86.9668 143.359C86.9668 140.869 87.6748 138.501 89.0908 136.255C90.5068 134.009 92.7041 132.056 95.6826 130.396C96.9033 130.396 98.4414 130.688 100.297 131.274C102.152 131.86 103.886 132.69 105.497 133.765L108.28 117.212L80.3018 121.973C78.4463 119.873 76.957 117.725 75.834 115.527C74.7598 113.281 74.2227 110.522 74.2227 107.251C74.2227 103.442 74.9551 100.098 76.4199 97.2168C77.8848 94.3359 79.8623 92.1143 82.3525 90.5518C84.8916 88.9893 87.7236 88.208 90.8486 88.208C94.999 88.208 99.418 89.1357 104.105 90.9912C108.793 92.7979 113.139 95.0928 117.143 97.876C118.363 96.5576 120.243 95.166 122.782 93.7012C125.321 92.1875 128.056 90.918 130.985 89.8926C133.915 88.8672 136.552 88.3057 138.896 88.208C141.874 89.4775 144.193 91.9678 145.854 95.6787C147.514 99.3896 148.344 103.613 148.344 108.35C148.344 111.914 147.855 115.161 146.879 118.091C145.17 119.214 142.68 119.775 139.408 119.775C137.406 119.775 135.209 119.604 132.816 119.263C131.449 121.606 129.545 124.463 127.104 127.832C124.711 131.201 121.977 134.668 118.9 138.232C119.34 138.184 120.023 138.159 120.951 138.159C125.785 138.159 130.375 139.16 134.721 141.162C139.115 143.115 142.631 145.85 145.268 149.365C147.904 152.832 149.174 156.738 149.076 161.084C148.881 168.555 146.781 175.073 142.777 180.64C138.773 186.255 133.5 190.552 126.957 193.53C120.463 196.558 113.407 198.071 105.79 198.071C98.2217 198.071 91.3857 196.826 85.2822 194.336C79.1787 191.846 75.4678 187.28 74.1494 180.64C75.126 177.466 76.4443 174.512 78.1045 171.777C79.7646 169.043 81.6689 167.017 83.8174 165.698Z" fill="black"/>
</svg>
